<mxfile host="app.diagrams.net" modified="2024-06-28T23:11:31.606Z" agent="Mozilla/5.0 (Macintosh; Intel Mac OS X 10_15_7) AppleWebKit/537.36 (KHTML, like Gecko) Chrome/122.0.0.0 Safari/537.36" etag="BZDXMUPATGX3RDbXaTfH" version="24.6.4" type="device">
  <diagram id="R2lEEEUBdFMjLlhIrx00" name="Page-1">
    <mxGraphModel dx="1114" dy="606" grid="1" gridSize="10" guides="1" tooltips="1" connect="1" arrows="1" fold="1" page="1" pageScale="1" pageWidth="850" pageHeight="1100" math="0" shadow="0" extFonts="Permanent Marker^https://fonts.googleapis.com/css?family=Permanent+Marker">
      <root>
        <mxCell id="0" />
        <mxCell id="1" parent="0" />
        <mxCell id="etIfWY8MxayoklCeAlqW-3" value="unified_customers&lt;div&gt;&lt;br&gt;|&amp;nbsp;first_name : &lt;span class=&quot;hljs-built_in&quot;&gt;VARCHAR&lt;/span&gt;(&lt;span class=&quot;hljs-number&quot;&gt;255&lt;/span&gt;) |&lt;div&gt;&lt;br&gt;| last_name : &lt;span class=&quot;hljs-built_in&quot;&gt;VARCHAR&lt;/span&gt;(&lt;span class=&quot;hljs-number&quot;&gt;255&lt;/span&gt;)  |&lt;/div&gt;&lt;div&gt;&lt;br&gt;| company_name : &lt;span class=&quot;hljs-built_in&quot;&gt;VARCHAR&lt;/span&gt;(&lt;span class=&quot;hljs-number&quot;&gt;255&lt;/span&gt;) |&lt;/div&gt;&lt;div&gt;&lt;br&gt;| address : &lt;span class=&quot;hljs-built_in&quot;&gt;VARCHAR&lt;/span&gt;(&lt;span class=&quot;hljs-number&quot;&gt;255&lt;/span&gt;)    |&lt;/div&gt;&lt;div&gt;&lt;br&gt;| city : &lt;span class=&quot;hljs-built_in&quot;&gt;VARCHAR&lt;/span&gt;(&lt;span class=&quot;hljs-number&quot;&gt;255&lt;/span&gt;)       |&lt;/div&gt;&lt;div&gt;&lt;br&gt;| county : &lt;span class=&quot;hljs-built_in&quot;&gt;VARCHAR&lt;/span&gt;(&lt;span class=&quot;hljs-number&quot;&gt;255&lt;/span&gt;)     |&lt;/div&gt;&lt;div&gt;&lt;br&gt;| state : &lt;span class=&quot;hljs-built_in&quot;&gt;VARCHAR&lt;/span&gt;(&lt;span class=&quot;hljs-number&quot;&gt;255&lt;/span&gt;)      |&lt;/div&gt;&lt;div&gt;&lt;br&gt;| postal_code : &lt;span class=&quot;hljs-built_in&quot;&gt;VARCHAR&lt;/span&gt;(&lt;span class=&quot;hljs-number&quot;&gt;20&lt;/span&gt;) |&lt;/div&gt;&lt;div&gt;&lt;br&gt;| phone1 : &lt;span class=&quot;hljs-built_in&quot;&gt;VARCHAR&lt;/span&gt;(&lt;span class=&quot;hljs-number&quot;&gt;20&lt;/span&gt;)      |&lt;/div&gt;&lt;div&gt;&lt;br&gt;| phone2 : &lt;span class=&quot;hljs-built_in&quot;&gt;VARCHAR&lt;/span&gt;(&lt;span class=&quot;hljs-number&quot;&gt;20&lt;/span&gt;)      |&lt;/div&gt;&lt;div&gt;&lt;br&gt;| email : &lt;span class=&quot;hljs-built_in&quot;&gt;VARCHAR&lt;/span&gt;(&lt;span class=&quot;hljs-number&quot;&gt;255&lt;/span&gt;)      |&lt;/div&gt;&lt;div&gt;&lt;br&gt;| web : &lt;span class=&quot;hljs-built_in&quot;&gt;VARCHAR&lt;/span&gt;(&lt;span class=&quot;hljs-number&quot;&gt;255&lt;/span&gt;)        |&lt;/div&gt;&lt;div&gt;&lt;br&gt;| source_file : &lt;span class=&quot;hljs-built_in&quot;&gt;VARCHAR&lt;/span&gt;(&lt;span class=&quot;hljs-number&quot;&gt;50&lt;/span&gt;)&amp;nbsp;&lt;/div&gt;&lt;/div&gt;" style="whiteSpace=wrap;html=1;rounded=0;" vertex="1" parent="1">
          <mxGeometry x="370" y="560" width="210" height="410" as="geometry" />
        </mxCell>
        <mxCell id="etIfWY8MxayoklCeAlqW-12" style="edgeStyle=orthogonalEdgeStyle;rounded=0;orthogonalLoop=1;jettySize=auto;html=1;" edge="1" parent="1" source="etIfWY8MxayoklCeAlqW-7" target="etIfWY8MxayoklCeAlqW-3">
          <mxGeometry relative="1" as="geometry" />
        </mxCell>
        <mxCell id="etIfWY8MxayoklCeAlqW-7" value="&lt;h3&gt;&lt;span style=&quot;font-weight: normal;&quot;&gt;de_shop_customers_20230619&lt;/span&gt;&lt;/h3&gt;&lt;p&gt;| first_name : VARCHAR(255) |&lt;/p&gt;&lt;p&gt;&lt;br&gt;| last_name : VARCHAR(255) |&lt;/p&gt;&lt;p&gt;&lt;br&gt;| company_name : VARCHAR(255) |&lt;/p&gt;&lt;p&gt;&lt;br&gt;| address : VARCHAR(255) |&lt;/p&gt;&lt;p&gt;&lt;br&gt;| city : VARCHAR(255) |&lt;/p&gt;&lt;p&gt;&lt;br&gt;| county : VARCHAR(255) |&lt;/p&gt;&lt;p&gt;&lt;br&gt;| postal_code : VARCHAR(20) |&lt;/p&gt;&lt;p&gt;&lt;br&gt;| phone1 : VARCHAR(20) |&lt;/p&gt;&lt;p&gt;&lt;br&gt;| phone2 : VARCHAR(20) |&lt;br&gt;&lt;br&gt;&lt;/p&gt;&lt;p&gt;| email : VARCHAR(255) |&lt;/p&gt;&lt;p&gt;&lt;br&gt;| web : VARCHAR(255) |&lt;/p&gt;" style="whiteSpace=wrap;html=1;rounded=0;" vertex="1" parent="1">
          <mxGeometry x="70" y="110" width="210" height="470" as="geometry" />
        </mxCell>
        <mxCell id="etIfWY8MxayoklCeAlqW-11" style="edgeStyle=orthogonalEdgeStyle;rounded=0;orthogonalLoop=1;jettySize=auto;html=1;" edge="1" parent="1" source="etIfWY8MxayoklCeAlqW-8" target="etIfWY8MxayoklCeAlqW-3">
          <mxGeometry relative="1" as="geometry" />
        </mxCell>
        <mxCell id="etIfWY8MxayoklCeAlqW-8" value="&lt;h3&gt;&lt;span style=&quot;font-weight: normal;&quot;&gt;de_shop_customers_20230901&lt;/span&gt;&lt;/h3&gt;&lt;p&gt;| first_name : VARCHAR(255) |&lt;/p&gt;&lt;p&gt;&lt;br&gt;| last_name : VARCHAR(255) |&lt;/p&gt;&lt;p&gt;&lt;br&gt;| company_name : VARCHAR(255) |&lt;/p&gt;&lt;p&gt;&lt;br&gt;| address : VARCHAR(255) |&lt;/p&gt;&lt;p&gt;&lt;br&gt;| city : VARCHAR(255) |&lt;/p&gt;&lt;p&gt;&lt;br&gt;| postal_code : VARCHAR(20) |&lt;/p&gt;&lt;p&gt;&lt;br&gt;| phone1 : VARCHAR(20) |&lt;/p&gt;&lt;p&gt;&lt;br&gt;| phone2 : VARCHAR(20) |&lt;/p&gt;&lt;p&gt;&lt;br&gt;| email : VARCHAR(255) |&lt;/p&gt;&lt;p&gt;&lt;br&gt;| web : VARCHAR(255) |&lt;/p&gt;" style="whiteSpace=wrap;html=1;rounded=0;" vertex="1" parent="1">
          <mxGeometry x="600" y="110" width="200" height="440" as="geometry" />
        </mxCell>
        <mxCell id="etIfWY8MxayoklCeAlqW-14" style="edgeStyle=orthogonalEdgeStyle;rounded=0;orthogonalLoop=1;jettySize=auto;html=1;" edge="1" parent="1" source="etIfWY8MxayoklCeAlqW-9" target="etIfWY8MxayoklCeAlqW-3">
          <mxGeometry relative="1" as="geometry" />
        </mxCell>
        <mxCell id="etIfWY8MxayoklCeAlqW-9" value="&lt;h3&gt;&lt;span style=&quot;font-weight: normal;&quot;&gt;de_shop_customers_20240614&lt;/span&gt;&lt;/h3&gt;&lt;p&gt;| first_name : VARCHAR(255) |&lt;/p&gt;&lt;p&gt;&lt;br&gt;| last_name : VARCHAR(255) |&lt;/p&gt;&lt;p&gt;&lt;br&gt;| company_name : VARCHAR(255) |&lt;/p&gt;&lt;p&gt;&lt;br&gt;| address : VARCHAR(255) |&lt;/p&gt;&lt;p&gt;&lt;br&gt;| city : VARCHAR(255) |&lt;/p&gt;&lt;p&gt;&lt;br&gt;| state : VARCHAR(255) |&lt;/p&gt;&lt;p&gt;&lt;br&gt;| phone1 : VARCHAR(20) |&lt;/p&gt;&lt;p&gt;&lt;br&gt;| phone2 : VARCHAR(20) |&lt;/p&gt;&lt;p&gt;&lt;br&gt;| email : VARCHAR(255) |&lt;/p&gt;&lt;p&gt;&lt;br&gt;| web : VARCHAR(255) |&lt;/p&gt;" style="whiteSpace=wrap;html=1;rounded=0;" vertex="1" parent="1">
          <mxGeometry x="80" y="980" width="230" height="470" as="geometry" />
        </mxCell>
        <mxCell id="etIfWY8MxayoklCeAlqW-13" style="edgeStyle=orthogonalEdgeStyle;rounded=0;orthogonalLoop=1;jettySize=auto;html=1;" edge="1" parent="1" source="etIfWY8MxayoklCeAlqW-10" target="etIfWY8MxayoklCeAlqW-3">
          <mxGeometry relative="1" as="geometry" />
        </mxCell>
        <mxCell id="etIfWY8MxayoklCeAlqW-10" value="&lt;h3&gt;&lt;span style=&quot;font-weight: normal;&quot;&gt;de_shop_customers_20240701&lt;/span&gt;&lt;/h3&gt;&lt;p&gt;| first_name : VARCHAR(255) |&lt;/p&gt;&lt;p&gt;&lt;br&gt;| last_name : VARCHAR(255) |&lt;/p&gt;&lt;p&gt;&lt;br&gt;| company_name : VARCHAR(255) |&lt;/p&gt;&lt;p&gt;&lt;br&gt;| address : VARCHAR(255) |&lt;/p&gt;&lt;p&gt;&lt;br&gt;| city : VARCHAR(255) |&lt;/p&gt;&lt;p&gt;&lt;br&gt;| state : VARCHAR(255) |&lt;/p&gt;&lt;p&gt;&lt;br&gt;| postal_code : VARCHAR(20) |&lt;/p&gt;&lt;p&gt;&lt;br&gt;| phone1 : VARCHAR(20) |&lt;/p&gt;&lt;p&gt;&lt;br&gt;| phone2 : VARCHAR(20) |&lt;/p&gt;&lt;p&gt;&lt;br&gt;| email : VARCHAR(255) |&lt;/p&gt;&lt;p&gt;&lt;br&gt;| web : VARCHAR(255) |&lt;/p&gt;" style="whiteSpace=wrap;html=1;rounded=0;" vertex="1" parent="1">
          <mxGeometry x="600" y="980" width="220" height="470" as="geometry" />
        </mxCell>
      </root>
    </mxGraphModel>
  </diagram>
</mxfile>
